<svg width="28" height="29" viewBox="0 0 28 29" fill="none" xmlns="http://www.w3.org/2000/svg">
<path d="M13.3625 10.4419H24.3393C23.7218 8.86396 22.7785 7.50902 21.5093 6.37704C20.2401 5.24507 18.7823 4.4504 17.1358 3.99303L13.3625 10.4419ZM10.2067 13.1861L15.6951 3.71861C15.4435 3.67288 15.192 3.63858 14.9404 3.61571C14.6889 3.59284 14.4373 3.58141 14.1858 3.58141C12.6765 3.58141 11.2701 3.86726 9.96659 4.43896C8.6631 5.01067 7.50825 5.77675 6.50205 6.73722L10.2067 13.1861ZM3.55205 17.3023H11.03L5.54159 7.83489C4.8098 8.77249 4.2381 9.80728 3.82647 10.9393C3.41484 12.0712 3.20903 13.2775 3.20903 14.5581C3.20903 15.0384 3.23761 15.5015 3.29479 15.9474C3.35196 16.3933 3.43771 16.845 3.55205 17.3023ZM11.2358 25.1233L14.9404 18.6744H4.03229C4.64973 20.2523 5.59304 21.6073 6.86223 22.7393C8.13141 23.8712 9.58926 24.6659 11.2358 25.1233ZM14.1858 25.5349C15.6951 25.5349 17.1015 25.249 18.405 24.6773C19.7084 24.1056 20.8633 23.3395 21.8695 22.3791L18.1648 15.9302L12.6765 25.3977C12.928 25.4434 13.1739 25.4777 13.414 25.5006C13.6541 25.5235 13.9114 25.5349 14.1858 25.5349ZM22.83 21.2814C23.5617 20.3438 24.1334 19.309 24.5451 18.177C24.9567 17.0451 25.1625 15.8388 25.1625 14.5581C25.1625 14.0779 25.1339 13.6148 25.0768 13.1689C25.0196 12.723 24.9338 12.2713 24.8195 11.814H17.3416L22.83 21.2814ZM14.1858 28.2791C12.3106 28.2791 10.5383 27.9189 8.86891 27.1986C7.19953 26.4782 5.74168 25.4949 4.49537 24.2486C3.24905 23.0022 2.26572 21.5444 1.54537 19.875C0.825018 18.2056 0.464844 16.4333 0.464844 14.5581C0.464844 12.6601 0.825018 10.8821 1.54537 9.22414C2.26572 7.56619 3.24905 6.11406 4.49537 4.86774C5.74168 3.62142 7.19953 2.63809 8.86891 1.91774C10.5383 1.19739 12.3106 0.837219 14.1858 0.837219C16.0838 0.837219 17.8618 1.19739 19.5198 1.91774C21.1777 2.63809 22.6299 3.62142 23.8762 4.86774C25.1225 6.11406 26.1058 7.56619 26.8262 9.22414C27.5465 10.8821 27.9067 12.6601 27.9067 14.5581C27.9067 16.4333 27.5465 18.2056 26.8262 19.875C26.1058 21.5444 25.1225 23.0022 23.8762 24.2486C22.6299 25.4949 21.1777 26.4782 19.5198 27.1986C17.8618 27.9189 16.0838 28.2791 14.1858 28.2791Z" fill="black"/>
</svg>
