<svg width="48" height="42" viewBox="0 0 48 42" fill="none" xmlns="http://www.w3.org/2000/svg">
<path d="M23.3625 18.4419H34.3393C33.7218 16.864 32.7785 15.509 31.5093 14.377C30.2401 13.2451 28.7823 12.4504 27.1358 11.993L23.3625 18.4419ZM20.2067 21.1861L25.6951 11.7186C25.4435 11.6729 25.192 11.6386 24.9404 11.6157C24.6889 11.5928 24.4373 11.5814 24.1858 11.5814C22.6765 11.5814 21.2701 11.8673 19.9666 12.439C18.6631 13.0107 17.5083 13.7768 16.5021 14.7372L20.2067 21.1861ZM13.5521 25.3023H21.03L15.5416 15.8349C14.8098 16.7725 14.2381 17.8073 13.8265 18.9393C13.4148 20.0712 13.209 21.2775 13.209 22.5581C13.209 23.0384 13.2376 23.5015 13.2948 23.9474C13.352 24.3933 13.4377 24.845 13.5521 25.3023ZM21.2358 33.1233L24.9404 26.6744H14.0323C14.6497 28.2523 15.593 29.6073 16.8622 30.7393C18.1314 31.8712 19.5893 32.6659 21.2358 33.1233ZM24.1858 33.5349C25.6951 33.5349 27.1015 33.249 28.405 32.6773C29.7084 32.1056 30.8633 31.3395 31.8695 30.3791L28.1648 23.9302L22.6765 33.3977C22.928 33.4434 23.1739 33.4777 23.414 33.5006C23.6541 33.5235 23.9114 33.5349 24.1858 33.5349ZM32.83 29.2814C33.5617 28.3438 34.1334 27.309 34.5451 26.177C34.9567 25.0451 35.1625 23.8388 35.1625 22.5581C35.1625 22.0779 35.1339 21.6148 35.0768 21.1689C35.0196 20.723 34.9338 20.2713 34.8195 19.814H27.3416L32.83 29.2814ZM24.1858 36.2791C22.3106 36.2791 20.5383 35.9189 18.8689 35.1986C17.1995 34.4782 15.7417 33.4949 14.4954 32.2486C13.249 31.0022 12.2657 29.5444 11.5454 27.875C10.825 26.2056 10.4648 24.4333 10.4648 22.5581C10.4648 20.6601 10.825 18.8821 11.5454 17.2241C12.2657 15.5662 13.249 14.1141 14.4954 12.8677C15.7417 11.6214 17.1995 10.6381 18.8689 9.91774C20.5383 9.19739 22.3106 8.83722 24.1858 8.83722C26.0838 8.83722 27.8618 9.19739 29.5198 9.91774C31.1777 10.6381 32.6299 11.6214 33.8762 12.8677C35.1225 14.1141 36.1058 15.5662 36.8262 17.2241C37.5465 18.8821 37.9067 20.6601 37.9067 22.5581C37.9067 24.4333 37.5465 26.2056 36.8262 27.875C36.1058 29.5444 35.1225 31.0022 33.8762 32.2486C32.6299 33.4949 31.1777 34.4782 29.5198 35.1986C27.8618 35.9189 26.0838 36.2791 24.1858 36.2791Z" fill="black"/>
<path d="M5.29994 41.7675C4.05959 41.7675 3.00974 41.3437 2.15037 40.4963C1.29101 39.6488 0.861328 38.6135 0.861328 37.3903V9.82454C0.861328 8.60135 1.29101 7.56603 2.15037 6.71856C3.00974 5.87109 4.05959 5.44736 5.29994 5.44736H12.7979L17.3402 0.604675H31.0336L35.5759 5.44736H43.0739C44.3142 5.44736 45.3641 5.87109 46.2234 6.71856C47.0828 7.56603 47.5125 8.60135 47.5125 9.82454V37.3903C47.5125 38.6135 47.0828 39.6488 46.2234 40.4963C45.3641 41.3437 44.3142 41.7675 43.0739 41.7675H5.29994ZM5.29994 38.1355H43.0739C43.2944 38.1355 43.4755 38.0656 43.6171 37.926C43.7587 37.7864 43.8295 37.6078 43.8295 37.3903V9.82454C43.8295 9.60702 43.7587 9.42845 43.6171 9.28881C43.4755 9.14918 43.2944 9.07937 43.0739 9.07937H33.9327L29.4278 4.23669H18.946L14.4411 9.07937H5.29994C5.07937 9.07937 4.89829 9.14918 4.7567 9.28881C4.61511 9.42845 4.54431 9.60702 4.54431 9.82454V37.3903C4.54431 37.6078 4.61511 37.7864 4.7567 37.926C4.89829 38.0656 5.07937 38.1355 5.29994 38.1355Z" fill="black"/>
</svg>
