<svg width="135" height="42" viewBox="0 0 135 42" fill="none" xmlns="http://www.w3.org/2000/svg">
<path d="M53.088 31H49.896L40.292 16.468V31H37.1V11.512H40.292L49.896 26.016V11.512H53.088V31ZM69.1797 22.908C69.1797 23.4867 69.1424 24.0093 69.0677 24.476H57.2797C57.373 25.708 57.8304 26.6973 58.6517 27.444C59.473 28.1907 60.481 28.564 61.6757 28.564C63.393 28.564 64.6064 27.8453 65.3157 26.408H68.7597C68.293 27.8267 67.4437 28.9933 66.2117 29.908C64.9984 30.804 63.4864 31.252 61.6757 31.252C60.201 31.252 58.8757 30.9253 57.6997 30.272C56.5424 29.6 55.6277 28.6667 54.9557 27.472C54.3024 26.2587 53.9757 24.8587 53.9757 23.272C53.9757 21.6853 54.293 20.2947 54.9277 19.1C55.581 17.8867 56.4864 16.9533 57.6437 16.3C58.8197 15.6467 60.1637 15.32 61.6757 15.32C63.1317 15.32 64.429 15.6373 65.5677 16.272C66.7064 16.9067 67.593 17.8027 68.2277 18.96C68.8624 20.0987 69.1797 21.4147 69.1797 22.908ZM65.8477 21.9C65.829 20.724 65.409 19.7813 64.5877 19.072C63.7664 18.3627 62.749 18.008 61.5357 18.008C60.4344 18.008 59.4917 18.3627 58.7077 19.072C57.9237 19.7627 57.457 20.7053 57.3077 21.9H65.8477ZM76.6889 23.188L81.6729 31H78.0609L74.7289 25.764L71.5929 31H68.2609L73.2449 23.412L68.2609 15.572H71.8729L75.2049 20.808L78.3409 15.572H81.6729L76.6889 23.188ZM85.5376 18.176V26.716C85.5376 27.2947 85.6683 27.7147 85.9296 27.976C86.2096 28.2187 86.6763 28.34 87.3296 28.34H89.2896V31H86.7696C85.3323 31 84.2309 30.664 83.4656 29.992C82.7003 29.32 82.3176 28.228 82.3176 26.716V18.176H80.4976V15.572H82.3176V11.736H85.5376V15.572H89.2896V18.176H85.5376ZM88.9276 21.228C88.9276 19.324 89.3662 17.616 90.2436 16.104C91.1396 14.592 92.3436 13.416 93.8556 12.576C95.3862 11.7173 97.0569 11.288 98.8676 11.288C100.94 11.288 102.778 11.8013 104.384 12.828C106.008 13.836 107.184 15.2733 107.912 17.14H104.076C103.572 16.1133 102.872 15.348 101.976 14.844C101.08 14.34 100.044 14.088 98.8676 14.088C97.5796 14.088 96.4316 14.3773 95.4236 14.956C94.4156 15.5347 93.6222 16.3653 93.0436 17.448C92.4836 18.5307 92.2036 19.7907 92.2036 21.228C92.2036 22.6653 92.4836 23.9253 93.0436 25.008C93.6222 26.0907 94.4156 26.9307 95.4236 27.528C96.4316 28.1067 97.5796 28.396 98.8676 28.396C100.044 28.396 101.08 28.144 101.976 27.64C102.872 27.136 103.572 26.3707 104.076 25.344H107.912C107.184 27.2107 106.008 28.648 104.384 29.656C102.778 30.664 100.94 31.168 98.8676 31.168C97.0382 31.168 95.3676 30.748 93.8556 29.908C92.3436 29.0493 91.1396 27.864 90.2436 26.352C89.3662 24.84 88.9276 23.132 88.9276 21.228ZM108.344 23.216C108.344 21.6667 108.661 20.2947 109.296 19.1C109.949 17.9053 110.826 16.9813 111.928 16.328C113.048 15.656 114.28 15.32 115.624 15.32C116.837 15.32 117.892 15.5627 118.788 16.048C119.702 16.5147 120.43 17.1027 120.972 17.812V15.572H124.192V31H120.972V28.704C120.43 29.432 119.693 30.0387 118.76 30.524C117.826 31.0093 116.762 31.252 115.568 31.252C114.242 31.252 113.029 30.916 111.928 30.244C110.826 29.5533 109.949 28.6013 109.296 27.388C108.661 26.156 108.344 24.7653 108.344 23.216ZM120.972 23.272C120.972 22.208 120.748 21.284 120.3 20.5C119.87 19.716 119.301 19.1187 118.592 18.708C117.882 18.2973 117.117 18.092 116.296 18.092C115.474 18.092 114.709 18.2973 114 18.708C113.29 19.1 112.712 19.688 112.264 20.472C111.834 21.2373 111.62 22.152 111.62 23.216C111.62 24.28 111.834 25.2133 112.264 26.016C112.712 26.8187 113.29 27.4347 114 27.864C114.728 28.2747 115.493 28.48 116.296 28.48C117.117 28.48 117.882 28.2747 118.592 27.864C119.301 27.4533 119.87 26.856 120.3 26.072C120.748 25.2693 120.972 24.336 120.972 23.272ZM129.336 17.812C129.803 17.028 130.419 16.4213 131.184 15.992C131.968 15.544 132.892 15.32 133.956 15.32V18.624H133.144C131.894 18.624 130.942 18.9413 130.288 19.576C129.654 20.2107 129.336 21.312 129.336 22.88V31H126.144V15.572H129.336V17.812Z" fill="black"/>
<path d="M17 37C14.6483 37 12.4383 36.5538 10.37 35.6613C8.30167 34.7688 6.5025 33.5575 4.9725 32.0275C3.4425 30.4975 2.23125 28.6983 1.33875 26.63C0.44625 24.5617 0 22.3517 0 20C0 17.6483 0.44625 15.4383 1.33875 13.37C2.23125 11.3017 3.4425 9.5025 4.9725 7.9725C6.5025 6.4425 8.30167 5.23125 10.37 4.33875C12.4383 3.44625 14.6483 3 17 3C19.3517 3 21.5617 3.44625 23.63 4.33875C25.6983 5.23125 27.4975 6.4425 29.0275 7.9725C30.5575 9.5025 31.7688 11.3017 32.6613 13.37C33.5538 15.4383 34 17.6483 34 20C34 22.3517 33.5538 24.5617 32.6613 26.63C31.7688 28.6983 30.5575 30.4975 29.0275 32.0275C27.4975 33.5575 25.6983 34.7688 23.63 35.6613C21.5617 36.5538 19.3517 37 17 37ZM15.3 33.43V28.33C13.6 27.99 12.155 27.225 10.965 26.035C9.775 24.845 9.01 23.4 8.67 21.7H3.57C3.91 24.7883 5.17792 27.4092 7.37375 29.5625C9.56958 31.7158 12.2117 33.005 15.3 33.43ZM18.7 33.43C21.7883 33.09 24.4304 31.8221 26.6263 29.6263C28.8221 27.4304 30.09 24.7883 30.43 21.7H25.33C24.99 23.4 24.225 24.845 23.035 26.035C21.845 27.225 20.4 27.99 18.7 28.33V33.43ZM3.57 18.3H8.5L13.6 13.2H20.4L25.5 18.3H30.43C30.005 14.8717 28.5175 12.0313 25.9675 9.77875C23.4175 7.52625 20.4283 6.4 17 6.4C13.5717 6.4 10.5825 7.52625 8.0325 9.77875C5.4825 12.0313 3.995 14.8717 3.57 18.3Z" fill="black"/>
</svg>
