<svg width="218" height="44" viewBox="0 0 218 44" fill="none" xmlns="http://www.w3.org/2000/svg">
<path d="M5.29994 41.7675C4.05959 41.7675 3.00974 41.3437 2.15037 40.4963C1.29101 39.6488 0.861328 38.6135 0.861328 37.3903V9.82454C0.861328 8.60135 1.29101 7.56603 2.15037 6.71856C3.00974 5.87109 4.05959 5.44736 5.29994 5.44736H12.7979L17.3402 0.604675H31.0336L35.5759 5.44736H43.0739C44.3142 5.44736 45.3641 5.87109 46.2234 6.71856C47.0828 7.56603 47.5125 8.60135 47.5125 9.82454V37.3903C47.5125 38.6135 47.0828 39.6488 46.2234 40.4963C45.3641 41.3437 44.3142 41.7675 43.0739 41.7675H5.29994ZM5.29994 38.1355H43.0739C43.2944 38.1355 43.4755 38.0656 43.6171 37.926C43.7587 37.7864 43.8295 37.6078 43.8295 37.3903V9.82454C43.8295 9.60702 43.7587 9.42845 43.6171 9.28881C43.4755 9.14918 43.2944 9.07937 43.0739 9.07937H33.9327L29.4278 4.23669H18.946L14.4411 9.07937H5.29994C5.07937 9.07937 4.89829 9.14918 4.7567 9.28881C4.61511 9.42845 4.54431 9.60702 4.54431 9.82454V37.3903C4.54431 37.6078 4.61511 37.7864 4.7567 37.926C4.89829 38.0656 5.07937 38.1355 5.29994 38.1355Z" fill="black"/>
<path d="M23.3625 18.4419H34.3393C33.7218 16.864 32.7785 15.509 31.5093 14.377C30.2401 13.2451 28.7823 12.4504 27.1358 11.993L23.3625 18.4419ZM20.2067 21.1861L25.6951 11.7186C25.4435 11.6729 25.192 11.6386 24.9404 11.6157C24.6889 11.5928 24.4373 11.5814 24.1858 11.5814C22.6765 11.5814 21.2701 11.8673 19.9666 12.439C18.6631 13.0107 17.5083 13.7768 16.5021 14.7372L20.2067 21.1861ZM13.5521 25.3023H21.03L15.5416 15.8349C14.8098 16.7725 14.2381 17.8073 13.8265 18.9393C13.4148 20.0712 13.209 21.2775 13.209 22.5581C13.209 23.0384 13.2376 23.5015 13.2948 23.9474C13.352 24.3933 13.4377 24.845 13.5521 25.3023ZM21.2358 33.1233L24.9404 26.6744H14.0323C14.6497 28.2523 15.593 29.6073 16.8622 30.7393C18.1314 31.8712 19.5893 32.6659 21.2358 33.1233ZM24.1858 33.5349C25.6951 33.5349 27.1015 33.249 28.405 32.6773C29.7084 32.1056 30.8633 31.3395 31.8695 30.3791L28.1648 23.9302L22.6765 33.3977C22.928 33.4434 23.1739 33.4777 23.414 33.5006C23.6541 33.5235 23.9114 33.5349 24.1858 33.5349ZM32.83 29.2814C33.5617 28.3438 34.1334 27.309 34.5451 26.177C34.9567 25.0451 35.1625 23.8388 35.1625 22.5581C35.1625 22.0779 35.1339 21.6148 35.0768 21.1689C35.0196 20.723 34.9338 20.2713 34.8195 19.814H27.3416L32.83 29.2814ZM24.1858 36.2791C22.3106 36.2791 20.5383 35.9189 18.8689 35.1986C17.1995 34.4782 15.7417 33.4949 14.4954 32.2486C13.249 31.0022 12.2657 29.5444 11.5454 27.875C10.825 26.2056 10.4648 24.4333 10.4648 22.5581C10.4648 20.6601 10.825 18.8821 11.5454 17.2241C12.2657 15.5662 13.249 14.1141 14.4954 12.8677C15.7417 11.6214 17.1995 10.6381 18.8689 9.91774C20.5383 9.19739 22.3106 8.83722 24.1858 8.83722C26.0838 8.83722 27.8618 9.19739 29.5198 9.91774C31.1777 10.6381 32.6299 11.6214 33.8762 12.8677C35.1225 14.1141 36.1058 15.5662 36.8262 17.2241C37.5465 18.8821 37.9067 20.6601 37.9067 22.5581C37.9067 24.4333 37.5465 26.2056 36.8262 27.875C36.1058 29.5444 35.1225 31.0022 33.8762 32.2486C32.6299 33.4949 31.1777 34.4782 29.5198 35.1986C27.8618 35.9189 26.0838 36.2791 24.1858 36.2791Z" fill="black"/>
<path d="M51.036 23.228C51.036 21.324 51.4747 19.616 52.352 18.104C53.248 16.592 54.452 15.416 55.964 14.576C57.4947 13.7173 59.1653 13.288 60.976 13.288C63.048 13.288 64.8867 13.8013 66.492 14.828C68.116 15.836 69.292 17.2733 70.02 19.14H66.184C65.68 18.1133 64.98 17.348 64.084 16.844C63.188 16.34 62.152 16.088 60.976 16.088C59.688 16.088 58.54 16.3773 57.532 16.956C56.524 17.5347 55.7307 18.3653 55.152 19.448C54.592 20.5307 54.312 21.7907 54.312 23.228C54.312 24.6653 54.592 25.9253 55.152 27.008C55.7307 28.0907 56.524 28.9307 57.532 29.528C58.54 30.1067 59.688 30.396 60.976 30.396C62.152 30.396 63.188 30.144 64.084 29.64C64.98 29.136 65.68 28.3707 66.184 27.344H70.02C69.292 29.2107 68.116 30.648 66.492 31.656C64.8867 32.664 63.048 33.168 60.976 33.168C59.1467 33.168 57.476 32.748 55.964 31.908C54.452 31.0493 53.248 29.864 52.352 28.352C51.4747 26.84 51.036 25.132 51.036 23.228ZM70.4523 25.216C70.4523 23.6667 70.7696 22.2947 71.4043 21.1C72.0576 19.9053 72.9349 18.9813 74.0363 18.328C75.1563 17.656 76.3883 17.32 77.7323 17.32C78.9456 17.32 80.0003 17.5627 80.8963 18.048C81.8109 18.5147 82.5389 19.1027 83.0803 19.812V17.572H86.3003V33H83.0803V30.704C82.5389 31.432 81.8016 32.0387 80.8683 32.524C79.9349 33.0093 78.8709 33.252 77.6763 33.252C76.3509 33.252 75.1376 32.916 74.0363 32.244C72.9349 31.5533 72.0576 30.6013 71.4043 29.388C70.7696 28.156 70.4523 26.7653 70.4523 25.216ZM83.0803 25.272C83.0803 24.208 82.8563 23.284 82.4083 22.5C81.9789 21.716 81.4096 21.1187 80.7003 20.708C79.9909 20.2973 79.2256 20.092 78.4043 20.092C77.5829 20.092 76.8176 20.2973 76.1083 20.708C75.3989 21.1 74.8203 21.688 74.3723 22.472C73.9429 23.2373 73.7283 24.152 73.7283 25.216C73.7283 26.28 73.9429 27.2133 74.3723 28.016C74.8203 28.8187 75.3989 29.4347 76.1083 29.864C76.8363 30.2747 77.6016 30.48 78.4043 30.48C79.2256 30.48 79.9909 30.2747 80.7003 29.864C81.4096 29.4533 81.9789 28.856 82.4083 28.072C82.8563 27.2693 83.0803 26.336 83.0803 25.272ZM106.929 17.32C108.142 17.32 109.225 17.572 110.177 18.076C111.147 18.58 111.903 19.3267 112.445 20.316C113.005 21.3053 113.285 22.5 113.285 23.9V33H110.121V24.376C110.121 22.9947 109.775 21.94 109.085 21.212C108.394 20.4653 107.451 20.092 106.257 20.092C105.062 20.092 104.11 20.4653 103.401 21.212C102.71 21.94 102.365 22.9947 102.365 24.376V33H99.2008V24.376C99.2008 22.9947 98.8555 21.94 98.1648 21.212C97.4741 20.4653 96.5315 20.092 95.3368 20.092C94.1421 20.092 93.1901 20.4653 92.4808 21.212C91.7901 21.94 91.4448 22.9947 91.4448 24.376V33H88.2528V17.572H91.4448V19.336C91.9675 18.7013 92.6301 18.2067 93.4328 17.852C94.2355 17.4973 95.0941 17.32 96.0088 17.32C97.2408 17.32 98.3421 17.5813 99.3128 18.104C100.283 18.6267 101.03 19.3827 101.553 20.372C102.019 19.4387 102.747 18.7013 103.737 18.16C104.726 17.6 105.79 17.32 106.929 17.32ZM129.247 24.908C129.247 25.4867 129.209 26.0093 129.135 26.476H117.347C117.44 27.708 117.897 28.6973 118.719 29.444C119.54 30.1907 120.548 30.564 121.743 30.564C123.46 30.564 124.673 29.8453 125.383 28.408H128.827C128.36 29.8267 127.511 30.9933 126.279 31.908C125.065 32.804 123.553 33.252 121.743 33.252C120.268 33.252 118.943 32.9253 117.767 32.272C116.609 31.6 115.695 30.6667 115.023 29.472C114.369 28.2587 114.043 26.8587 114.043 25.272C114.043 23.6853 114.36 22.2947 114.995 21.1C115.648 19.8867 116.553 18.9533 117.711 18.3C118.887 17.6467 120.231 17.32 121.743 17.32C123.199 17.32 124.496 17.6373 125.635 18.272C126.773 18.9067 127.66 19.8027 128.295 20.96C128.929 22.0987 129.247 23.4147 129.247 24.908ZM125.915 23.9C125.896 22.724 125.476 21.7813 124.655 21.072C123.833 20.3627 122.816 20.008 121.603 20.008C120.501 20.008 119.559 20.3627 118.775 21.072C117.991 21.7627 117.524 22.7053 117.375 23.9H125.915ZM133.34 19.812C133.806 19.028 134.422 18.4213 135.188 17.992C135.972 17.544 136.896 17.32 137.96 17.32V20.624H137.148C135.897 20.624 134.945 20.9413 134.292 21.576C133.657 22.2107 133.34 23.312 133.34 24.88V33H130.148V17.572H133.34V19.812ZM137.59 25.216C137.59 23.6667 137.907 22.2947 138.542 21.1C139.195 19.9053 140.073 18.9813 141.174 18.328C142.294 17.656 143.526 17.32 144.87 17.32C146.083 17.32 147.138 17.5627 148.034 18.048C148.949 18.5147 149.677 19.1027 150.218 19.812V17.572H153.438V33H150.218V30.704C149.677 31.432 148.939 32.0387 148.006 32.524C147.073 33.0093 146.009 33.252 144.814 33.252C143.489 33.252 142.275 32.916 141.174 32.244C140.073 31.5533 139.195 30.6013 138.542 29.388C137.907 28.156 137.59 26.7653 137.59 25.216ZM150.218 25.272C150.218 24.208 149.994 23.284 149.546 22.5C149.117 21.716 148.547 21.1187 147.838 20.708C147.129 20.2973 146.363 20.092 145.542 20.092C144.721 20.092 143.955 20.2973 143.246 20.708C142.537 21.1 141.958 21.688 141.51 22.472C141.081 23.2373 140.866 24.152 140.866 25.216C140.866 26.28 141.081 27.2133 141.51 28.016C141.958 28.8187 142.537 29.4347 143.246 29.864C143.974 30.2747 144.739 30.48 145.542 30.48C146.363 30.48 147.129 30.2747 147.838 29.864C148.547 29.4533 149.117 28.856 149.546 28.072C149.994 27.2693 150.218 26.336 150.218 25.272ZM161.802 33.196C160.496 33.196 159.32 32.972 158.274 32.524C157.229 32.0573 156.408 31.404 155.81 30.564C155.213 29.724 154.914 28.744 154.914 27.624H158.33C158.405 28.464 158.732 29.1547 159.31 29.696C159.908 30.2373 160.738 30.508 161.802 30.508C162.904 30.508 163.762 30.2467 164.378 29.724C164.994 29.1827 165.302 28.492 165.302 27.652C165.302 26.9987 165.106 26.4667 164.714 26.056C164.341 25.6453 163.865 25.328 163.286 25.104C162.726 24.88 161.942 24.6373 160.934 24.376C159.665 24.04 158.629 23.704 157.826 23.368C157.042 23.0133 156.37 22.472 155.81 21.744C155.25 21.016 154.97 20.0453 154.97 18.832C154.97 17.712 155.25 16.732 155.81 15.892C156.37 15.052 157.154 14.408 158.162 13.96C159.17 13.512 160.337 13.288 161.662 13.288C163.548 13.288 165.088 13.764 166.282 14.716C167.496 15.6493 168.168 16.9373 168.298 18.58H164.77C164.714 17.8707 164.378 17.264 163.762 16.76C163.146 16.256 162.334 16.004 161.326 16.004C160.412 16.004 159.665 16.2373 159.086 16.704C158.508 17.1707 158.218 17.8427 158.218 18.72C158.218 19.3173 158.396 19.812 158.75 20.204C159.124 20.5773 159.59 20.876 160.15 21.1C160.71 21.324 161.476 21.5667 162.446 21.828C163.734 22.1827 164.78 22.5373 165.582 22.892C166.404 23.2467 167.094 23.7973 167.654 24.544C168.233 25.272 168.522 26.252 168.522 27.484C168.522 28.4733 168.252 29.4067 167.71 30.284C167.188 31.1613 166.413 31.8707 165.386 32.412C164.378 32.9347 163.184 33.196 161.802 33.196ZM173.773 20.176V28.716C173.773 29.2947 173.904 29.7147 174.165 29.976C174.445 30.2187 174.912 30.34 175.565 30.34H177.525V33H175.005C173.568 33 172.466 32.664 171.701 31.992C170.936 31.32 170.553 30.228 170.553 28.716V20.176H168.733V17.572H170.553V13.736H173.773V17.572H177.525V20.176H173.773ZM184.919 33.252C183.463 33.252 182.147 32.9253 180.971 32.272C179.795 31.6 178.871 30.6667 178.199 29.472C177.527 28.2587 177.191 26.8587 177.191 25.272C177.191 23.704 177.536 22.3133 178.227 21.1C178.918 19.8867 179.86 18.9533 181.055 18.3C182.25 17.6467 183.584 17.32 185.059 17.32C186.534 17.32 187.868 17.6467 189.063 18.3C190.258 18.9533 191.2 19.8867 191.891 21.1C192.582 22.3133 192.927 23.704 192.927 25.272C192.927 26.84 192.572 28.2307 191.863 29.444C191.154 30.6573 190.183 31.6 188.951 32.272C187.738 32.9253 186.394 33.252 184.919 33.252ZM184.919 30.48C185.74 30.48 186.506 30.284 187.215 29.892C187.943 29.5 188.531 28.912 188.979 28.128C189.427 27.344 189.651 26.392 189.651 25.272C189.651 24.152 189.436 23.2093 189.007 22.444C188.578 21.66 188.008 21.072 187.299 20.68C186.59 20.288 185.824 20.092 185.003 20.092C184.182 20.092 183.416 20.288 182.707 20.68C182.016 21.072 181.466 21.66 181.055 22.444C180.644 23.2093 180.439 24.152 180.439 25.272C180.439 26.9333 180.859 28.2213 181.699 29.136C182.558 30.032 183.631 30.48 184.919 30.48ZM197.034 19.812C197.501 19.028 198.117 18.4213 198.882 17.992C199.666 17.544 200.59 17.32 201.654 17.32V20.624H200.842C199.592 20.624 198.64 20.9413 197.986 21.576C197.352 22.2107 197.034 23.312 197.034 24.88V33H193.842V17.572H197.034V19.812ZM216.488 24.908C216.488 25.4867 216.451 26.0093 216.376 26.476H204.588C204.682 27.708 205.139 28.6973 205.96 29.444C206.782 30.1907 207.79 30.564 208.984 30.564C210.702 30.564 211.915 29.8453 212.624 28.408H216.068C215.602 29.8267 214.752 30.9933 213.52 31.908C212.307 32.804 210.795 33.252 208.984 33.252C207.51 33.252 206.184 32.9253 205.008 32.272C203.851 31.6 202.936 30.6667 202.264 29.472C201.611 28.2587 201.284 26.8587 201.284 25.272C201.284 23.6853 201.602 22.2947 202.236 21.1C202.89 19.8867 203.795 18.9533 204.952 18.3C206.128 17.6467 207.472 17.32 208.984 17.32C210.44 17.32 211.738 17.6373 212.876 18.272C214.015 18.9067 214.902 19.8027 215.536 20.96C216.171 22.0987 216.488 23.4147 216.488 24.908ZM213.156 23.9C213.138 22.724 212.718 21.7813 211.896 21.072C211.075 20.3627 210.058 20.008 208.844 20.008C207.743 20.008 206.8 20.3627 206.016 21.072C205.232 21.7627 204.766 22.7053 204.616 23.9H213.156Z" fill="black"/>
</svg>
