<svg width="34" height="34" viewBox="0 0 34 34" fill="none" xmlns="http://www.w3.org/2000/svg">
<path d="M17 34C14.6483 34 12.4383 33.5538 10.37 32.6613C8.30167 31.7688 6.5025 30.5575 4.9725 29.0275C3.4425 27.4975 2.23125 25.6983 1.33875 23.63C0.44625 21.5617 0 19.3517 0 17C0 14.6483 0.44625 12.4383 1.33875 10.37C2.23125 8.30167 3.4425 6.5025 4.9725 4.9725C6.5025 3.4425 8.30167 2.23125 10.37 1.33875C12.4383 0.44625 14.6483 0 17 0C19.3517 0 21.5617 0.44625 23.63 1.33875C25.6983 2.23125 27.4975 3.4425 29.0275 4.9725C30.5575 6.5025 31.7688 8.30167 32.6613 10.37C33.5538 12.4383 34 14.6483 34 17C34 19.3517 33.5538 21.5617 32.6613 23.63C31.7688 25.6983 30.5575 27.4975 29.0275 29.0275C27.4975 30.5575 25.6983 31.7688 23.63 32.6613C21.5617 33.5538 19.3517 34 17 34ZM15.3 30.43V25.33C13.6 24.99 12.155 24.225 10.965 23.035C9.775 21.845 9.01 20.4 8.67 18.7H3.57C3.91 21.7883 5.17792 24.4092 7.37375 26.5625C9.56958 28.7158 12.2117 30.005 15.3 30.43ZM18.7 30.43C21.7883 30.09 24.4304 28.8221 26.6263 26.6263C28.8221 24.4304 30.09 21.7883 30.43 18.7H25.33C24.99 20.4 24.225 21.845 23.035 23.035C21.845 24.225 20.4 24.99 18.7 25.33V30.43ZM3.57 15.3H8.5L13.6 10.2H20.4L25.5 15.3H30.43C30.005 11.8717 28.5175 9.03125 25.9675 6.77875C23.4175 4.52625 20.4283 3.4 17 3.4C13.5717 3.4 10.5825 4.52625 8.0325 6.77875C5.4825 9.03125 3.995 11.8717 3.57 15.3Z" fill="black"/>
</svg>
